# xmcd
#
# Track frame offsets: 
#        150
#        20937
#        39311
#        64049
#        77820
#        92238
#        105685
#        124627
#        136673
#        149549
#        166805
#        180508
#
# Disc length: 2628 seconds
#
# Revision: 0
# Processed by: cddbd v1.4PL0 Copyright (c) Steve Scherf et al.
# Submitted via: ExactAudioCopy v0.90b4
#
DISCID=9d0a420c
DTITLE=Oslo Rhythm'n Blues Ensemble - Vi tar'n helt ut
DYEAR=2002
DGENRE=Blues
TTITLE0=Så lenge det er liv er det håp
TTITLE1=Tvangsjobb på Svalbard
TTITLE2=Vi tar'n helt ut
TTITLE3=En kamerat
TTITLE4=Gå're så gå're
TTITLE5=Ha'kke hus, ha'kke bil, ha'kke penger
TTITLE6=Nok, nok, nå er'e nok
TTITLE7=Tidlig om morran
TTITLE8=Lørdag på byen
TTITLE9=Prøv en gang til
TTITLE10=Coole Johnny
TTITLE11=Få på deg klea
EXTD=
EXTT0=
EXTT1=
EXTT2=
EXTT3=
EXTT4=
EXTT5=
EXTT6=
EXTT7=
EXTT8=
EXTT9=
EXTT10=
EXTT11=
PLAYORDER=
